{
  "header": {
    "PPQ": 960,
    "timeSignature": [
      4,
      4
    ],
    "bpm": 165.99990040005977,
    "name": ""
  },
  "tempo": [
    {
      "absoluteTime": 0,
      "seconds": 0,
      "bpm": 165.99990040005977
    }
  ],
  "timeSignature": [
    {
      "absoluteTime": 0,
      "seconds": 0,
      "numerator": 4,
      "denominator": 2,
      "click": 24,
      "notesQ": 8
    }
  ],
  "startTime": 0,
  "duration": 18.14760125,
  "tracks": [
    {
      "startTime": 0,
      "duration": 0,
      "length": 0,
      "notes": [],
      "controlChanges": {},
      "id": 0
    },
    {
      "startTime": 1.445784,
      "duration": 17.575311749999997,
      "length": 12,
      "notes": [
        {
          "name": "D#2",
          "midi": 39,
          "time": 1.445784,
          "velocity": 0.7480314960629921,
          "duration": 0.22590375000000007
        },
        {
          "name": "D#2",
          "midi": 39,
          "time": 2.891568,
          "velocity": 0.7480314960629921,
          "duration": 0.22590375000000007
        },
        {
          "name": "D#2",
          "midi": 39,
          "time": 4.337352,
          "velocity": 0.7480314960629921,
          "duration": 0.22590374999999963
        },
        {
          "name": "D#2",
          "midi": 39,
          "time": 5.783136,
          "velocity": 0.7480314960629921,
          "duration": 0.22590374999999963
        },
        {
          "name": "D#2",
          "midi": 39,
          "time": 7.22892,
          "velocity": 0.7480314960629921,
          "duration": 0.22590374999999963
        },
        {
          "name": "D#2",
          "midi": 39,
          "time": 8.674703999999998,
          "velocity": 0.7480314960629921,
          "duration": 0.2259037500000005
        },
        {
          "name": "D#2",
          "midi": 39,
          "time": 10.120487999999998,
          "velocity": 0.7480314960629921,
          "duration": 0.2259037500000005
        },
        {
          "name": "D#2",
          "midi": 39,
          "time": 11.566271999999998,
          "velocity": 0.7480314960629921,
          "duration": 0.2259037500000005
        },
        {
          "name": "D#2",
          "midi": 39,
          "time": 13.012055999999998,
          "velocity": 0.7480314960629921,
          "duration": 0.2259037500000005
        },
        {
          "name": "D#2",
          "midi": 39,
          "time": 14.457839999999997,
          "velocity": 0.7480314960629921,
          "duration": 0.2259037500000005
        },
        {
          "name": "D#2",
          "midi": 39,
          "time": 15.903623999999997,
          "velocity": 0.7480314960629921,
          "duration": 0.2259037500000005
        },
        {
          "name": "D#2",
          "midi": 39,
          "time": 17.349407999999997,
          "velocity": 0.7480314960629921,
          "duration": 0.2259037500000005
        }
      ],
      "controlChanges": {},
      "id": 1,
      "name": "merwas",
      "channelNumber": 0,
      "isPercussion": false
    },
    {
      "startTime": 1.80723,
      "duration": 18.14760125,
      "length": 34,
      "notes": [
        {
          "name": "C2",
          "midi": 36,
          "time": 1.80723,
          "velocity": 0.7480314960629921,
          "duration": 0.0753012500000001
        },
        {
          "name": "C2",
          "midi": 36,
          "time": 2.168676,
          "velocity": 0.7480314960629921,
          "duration": 0.07530124999999988
        },
        {
          "name": "C2",
          "midi": 36,
          "time": 2.530122,
          "velocity": 0.7480314960629921,
          "duration": 0.07530124999999988
        },
        {
          "name": "D2",
          "midi": 38,
          "time": 3.253014,
          "velocity": 0.7480314960629921,
          "duration": 0.07530124999999988
        },
        {
          "name": "D2",
          "midi": 38,
          "time": 3.61446,
          "velocity": 0.7480314960629921,
          "duration": 0.07530124999999988
        },
        {
          "name": "D2",
          "midi": 38,
          "time": 3.9759059999999997,
          "velocity": 0.7480314960629921,
          "duration": 0.07530125000000032
        },
        {
          "name": "C2",
          "midi": 36,
          "time": 4.698798,
          "velocity": 0.7480314960629921,
          "duration": 0.07530124999999988
        },
        {
          "name": "C2",
          "midi": 36,
          "time": 5.060244,
          "velocity": 0.7480314960629921,
          "duration": 0.07530124999999988
        },
        {
          "name": "C2",
          "midi": 36,
          "time": 5.42169,
          "velocity": 0.7480314960629921,
          "duration": 0.07530124999999988
        },
        {
          "name": "D2",
          "midi": 38,
          "time": 6.144582,
          "velocity": 0.7480314960629921,
          "duration": 0.07530124999999988
        },
        {
          "name": "D2",
          "midi": 38,
          "time": 6.506028,
          "velocity": 0.7480314960629921,
          "duration": 0.07530124999999988
        },
        {
          "name": "D2",
          "midi": 38,
          "time": 6.867474,
          "velocity": 0.7480314960629921,
          "duration": 0.07530124999999988
        },
        {
          "name": "C2",
          "midi": 36,
          "time": 7.048196999999999,
          "velocity": 0.7480314960629921,
          "duration": 0.07530124999999988
        },
        {
          "name": "C2",
          "midi": 36,
          "time": 7.5903659999999995,
          "velocity": 0.7480314960629921,
          "duration": 0.07530124999999988
        },
        {
          "name": "C2",
          "midi": 36,
          "time": 7.771088999999999,
          "velocity": 0.7480314960629921,
          "duration": 0.1332832125000003
        },
        {
          "name": "D2",
          "midi": 38,
          "time": 8.313258,
          "velocity": 0.7480314960629921,
          "duration": 0.1306476687499991
        },
        {
          "name": "C2",
          "midi": 36,
          "time": 9.03615,
          "velocity": 0.7480314960629921,
          "duration": 0.07530125000000076
        },
        {
          "name": "C2",
          "midi": 36,
          "time": 9.216873,
          "velocity": 0.7480314960629921,
          "duration": 0.1332832125000003
        },
        {
          "name": "D2",
          "midi": 38,
          "time": 9.759042,
          "velocity": 0.7480314960629921,
          "duration": 0.1306476687500009
        },
        {
          "name": "C2",
          "midi": 36,
          "time": 10.481934000000003,
          "velocity": 0.7480314960629921,
          "duration": 0.07530125000000076
        },
        {
          "name": "C2",
          "midi": 36,
          "time": 10.662657000000003,
          "velocity": 0.7480314960629921,
          "duration": 0.1332832125000003
        },
        {
          "name": "C2",
          "midi": 36,
          "time": 11.927718000000002,
          "velocity": 0.7480314960629921,
          "duration": 0.07530125000000076
        },
        {
          "name": "D2",
          "midi": 38,
          "time": 12.650610000000004,
          "velocity": 0.7480314960629921,
          "duration": 0.1355422500000003
        },
        {
          "name": "D2",
          "midi": 38,
          "time": 12.831333000000004,
          "velocity": 0.7480314960629921,
          "duration": 0.1306476687500009
        },
        {
          "name": "D2",
          "midi": 38,
          "time": 13.373502000000006,
          "velocity": 0.7480314960629921,
          "duration": 0.07530125000000076
        },
        {
          "name": "C2",
          "midi": 36,
          "time": 13.734948000000006,
          "velocity": 0.7480314960629921,
          "duration": 0.07530125000000076
        },
        {
          "name": "D2",
          "midi": 38,
          "time": 14.096394000000007,
          "velocity": 0.7480314960629921,
          "duration": 0.07530125000000076
        },
        {
          "name": "C2",
          "midi": 36,
          "time": 15.180732000000008,
          "velocity": 0.7480314960629921,
          "duration": 0.07530125000000076
        },
        {
          "name": "D2",
          "midi": 38,
          "time": 16.26507000000001,
          "velocity": 0.7480314960629921,
          "duration": 0.07530124999999899
        },
        {
          "name": "C2",
          "midi": 36,
          "time": 16.626516000000006,
          "velocity": 0.7480314960629921,
          "duration": 0.07530124999999899
        },
        {
          "name": "C2",
          "midi": 36,
          "time": 16.807239000000006,
          "velocity": 0.7480314960629921,
          "duration": 0.07530124999999899
        },
        {
          "name": "D2",
          "midi": 38,
          "time": 16.987962000000007,
          "velocity": 0.7480314960629921,
          "duration": 0.07530124999999899
        },
        {
          "name": "D2",
          "midi": 38,
          "time": 17.710854000000005,
          "velocity": 0.7480314960629921,
          "duration": 0.07530124999999899
        },
        {
          "name": "C2",
          "midi": 36,
          "time": 18.072300000000002,
          "velocity": 0.7480314960629921,
          "duration": 0.07530124999999899
        }
      ],
      "controlChanges": {},
      "id": 2,
      "name": "hawan",
      "channelNumber": 0,
      "isPercussion": false
    },
    {
      "startTime": 1.445784,
      "duration": 17.575311749999997,
      "length": 12,
      "notes": [
        {
          "name": "D#2",
          "midi": 39,
          "time": 1.445784,
          "velocity": 0.7480314960629921,
          "duration": 0.22590375000000007
        },
        {
          "name": "D#2",
          "midi": 39,
          "time": 2.891568,
          "velocity": 0.7480314960629921,
          "duration": 0.22590375000000007
        },
        {
          "name": "D#2",
          "midi": 39,
          "time": 4.337352,
          "velocity": 0.7480314960629921,
          "duration": 0.22590374999999963
        },
        {
          "name": "D#2",
          "midi": 39,
          "time": 5.783136,
          "velocity": 0.7480314960629921,
          "duration": 0.22590374999999963
        },
        {
          "name": "D#2",
          "midi": 39,
          "time": 7.22892,
          "velocity": 0.7480314960629921,
          "duration": 0.22590374999999963
        },
        {
          "name": "D#2",
          "midi": 39,
          "time": 8.674703999999998,
          "velocity": 0.7480314960629921,
          "duration": 0.2259037500000005
        },
        {
          "name": "D#2",
          "midi": 39,
          "time": 10.120487999999998,
          "velocity": 0.7480314960629921,
          "duration": 0.2259037500000005
        },
        {
          "name": "D#2",
          "midi": 39,
          "time": 11.566271999999998,
          "velocity": 0.7480314960629921,
          "duration": 0.2259037500000005
        },
        {
          "name": "D#2",
          "midi": 39,
          "time": 13.012055999999998,
          "velocity": 0.7480314960629921,
          "duration": 0.2259037500000005
        },
        {
          "name": "D#2",
          "midi": 39,
          "time": 14.457839999999997,
          "velocity": 0.7480314960629921,
          "duration": 0.2259037500000005
        },
        {
          "name": "D#2",
          "midi": 39,
          "time": 15.903623999999997,
          "velocity": 0.7480314960629921,
          "duration": 0.2259037500000005
        },
        {
          "name": "D#2",
          "midi": 39,
          "time": 17.349407999999997,
          "velocity": 0.7480314960629921,
          "duration": 0.2259037500000005
        }
      ],
      "controlChanges": {},
      "id": 3,
      "name": "tabel",
      "channelNumber": 0,
      "isPercussion": false
    },
    {
      "startTime": 1.445784,
      "duration": 17.575311749999997,
      "length": 12,
      "notes": [
        {
          "name": "D#2",
          "midi": 39,
          "time": 1.445784,
          "velocity": 0.7480314960629921,
          "duration": 0.22590375000000007
        },
        {
          "name": "D#2",
          "midi": 39,
          "time": 2.891568,
          "velocity": 0.7480314960629921,
          "duration": 0.22590375000000007
        },
        {
          "name": "D#2",
          "midi": 39,
          "time": 4.337352,
          "velocity": 0.7480314960629921,
          "duration": 0.22590374999999963
        },
        {
          "name": "D#2",
          "midi": 39,
          "time": 5.783136,
          "velocity": 0.7480314960629921,
          "duration": 0.22590374999999963
        },
        {
          "name": "D#2",
          "midi": 39,
          "time": 7.22892,
          "velocity": 0.7480314960629921,
          "duration": 0.22590374999999963
        },
        {
          "name": "D#2",
          "midi": 39,
          "time": 8.674703999999998,
          "velocity": 0.7480314960629921,
          "duration": 0.2259037500000005
        },
        {
          "name": "D#2",
          "midi": 39,
          "time": 10.120487999999998,
          "velocity": 0.7480314960629921,
          "duration": 0.2259037500000005
        },
        {
          "name": "D#2",
          "midi": 39,
          "time": 11.566271999999998,
          "velocity": 0.7480314960629921,
          "duration": 0.2259037500000005
        },
        {
          "name": "D#2",
          "midi": 39,
          "time": 13.012055999999998,
          "velocity": 0.7480314960629921,
          "duration": 0.2259037500000005
        },
        {
          "name": "D#2",
          "midi": 39,
          "time": 14.457839999999997,
          "velocity": 0.7480314960629921,
          "duration": 0.2259037500000005
        },
        {
          "name": "D#2",
          "midi": 39,
          "time": 15.903623999999997,
          "velocity": 0.7480314960629921,
          "duration": 0.2259037500000005
        },
        {
          "name": "D#2",
          "midi": 39,
          "time": 17.349407999999997,
          "velocity": 0.7480314960629921,
          "duration": 0.2259037500000005
        }
      ],
      "controlChanges": {},
      "id": 4,
      "name": "yahala",
      "channelNumber": 0,
      "isPercussion": false
    },
    {
      "startTime": 1.445784,
      "duration": 17.575311749999997,
      "length": 12,
      "notes": [
        {
          "name": "D#2",
          "midi": 39,
          "time": 1.445784,
          "velocity": 0.7480314960629921,
          "duration": 0.22590375000000007
        },
        {
          "name": "D#2",
          "midi": 39,
          "time": 2.891568,
          "velocity": 0.7480314960629921,
          "duration": 0.22590375000000007
        },
        {
          "name": "D#2",
          "midi": 39,
          "time": 4.337352,
          "velocity": 0.7480314960629921,
          "duration": 0.22590374999999963
        },
        {
          "name": "D#2",
          "midi": 39,
          "time": 5.783136,
          "velocity": 0.7480314960629921,
          "duration": 0.22590374999999963
        },
        {
          "name": "D#2",
          "midi": 39,
          "time": 7.22892,
          "velocity": 0.7480314960629921,
          "duration": 0.22590374999999963
        },
        {
          "name": "D#2",
          "midi": 39,
          "time": 8.674703999999998,
          "velocity": 0.7480314960629921,
          "duration": 0.2259037500000005
        },
        {
          "name": "D#2",
          "midi": 39,
          "time": 10.120487999999998,
          "velocity": 0.7480314960629921,
          "duration": 0.2259037500000005
        },
        {
          "name": "D#2",
          "midi": 39,
          "time": 11.566271999999998,
          "velocity": 0.7480314960629921,
          "duration": 0.2259037500000005
        },
        {
          "name": "D#2",
          "midi": 39,
          "time": 13.012055999999998,
          "velocity": 0.7480314960629921,
          "duration": 0.2259037500000005
        },
        {
          "name": "D#2",
          "midi": 39,
          "time": 14.457839999999997,
          "velocity": 0.7480314960629921,
          "duration": 0.2259037500000005
        },
        {
          "name": "D#2",
          "midi": 39,
          "time": 15.903623999999997,
          "velocity": 0.7480314960629921,
          "duration": 0.2259037500000005
        },
        {
          "name": "D#2",
          "midi": 39,
          "time": 17.349407999999997,
          "velocity": 0.7480314960629921,
          "duration": 0.2259037500000005
        }
      ],
      "controlChanges": {},
      "id": 5,
      "name": "tar",
      "channelNumber": 0,
      "isPercussion": false
    },
    {
      "startTime": 1.445784,
      "duration": 17.575311749999997,
      "length": 12,
      "notes": [
        {
          "name": "D#2",
          "midi": 39,
          "time": 1.445784,
          "velocity": 0.7480314960629921,
          "duration": 0.22590375000000007
        },
        {
          "name": "D#2",
          "midi": 39,
          "time": 2.891568,
          "velocity": 0.7480314960629921,
          "duration": 0.22590375000000007
        },
        {
          "name": "D#2",
          "midi": 39,
          "time": 4.337352,
          "velocity": 0.7480314960629921,
          "duration": 0.22590374999999963
        },
        {
          "name": "D#2",
          "midi": 39,
          "time": 5.783136,
          "velocity": 0.7480314960629921,
          "duration": 0.22590374999999963
        },
        {
          "name": "D#2",
          "midi": 39,
          "time": 7.22892,
          "velocity": 0.7480314960629921,
          "duration": 0.22590374999999963
        },
        {
          "name": "D#2",
          "midi": 39,
          "time": 8.674703999999998,
          "velocity": 0.7480314960629921,
          "duration": 0.2259037500000005
        },
        {
          "name": "D#2",
          "midi": 39,
          "time": 10.120487999999998,
          "velocity": 0.7480314960629921,
          "duration": 0.2259037500000005
        },
        {
          "name": "D#2",
          "midi": 39,
          "time": 11.566271999999998,
          "velocity": 0.7480314960629921,
          "duration": 0.2259037500000005
        },
        {
          "name": "D#2",
          "midi": 39,
          "time": 13.012055999999998,
          "velocity": 0.7480314960629921,
          "duration": 0.2259037500000005
        },
        {
          "name": "D#2",
          "midi": 39,
          "time": 14.457839999999997,
          "velocity": 0.7480314960629921,
          "duration": 0.2259037500000005
        },
        {
          "name": "D#2",
          "midi": 39,
          "time": 15.903623999999997,
          "velocity": 0.7480314960629921,
          "duration": 0.2259037500000005
        },
        {
          "name": "D#2",
          "midi": 39,
          "time": 17.349407999999997,
          "velocity": 0.7480314960629921,
          "duration": 0.2259037500000005
        }
      ],
      "controlChanges": {},
      "id": 6,
      "name": "hands",
      "channelNumber": 0,
      "isPercussion": false
    }
  ]
}