{
  "header": {
    "PPQ": 960,
    "timeSignature": [
      4,
      4
    ],
    "bpm": 123.99999173333389,
    "name": "hawan"
  },
  "tempo": [
    {
      "absoluteTime": 0,
      "seconds": 0,
      "bpm": 123.99999173333389
    }
  ],
  "timeSignature": [
    {
      "absoluteTime": 0,
      "seconds": 0,
      "numerator": 6,
      "denominator": 2,
      "click": 24,
      "notesQ": 8
    },
    {
      "absoluteTime": 74880,
      "seconds": 37.741938,
      "numerator": 4,
      "denominator": 2,
      "click": 24,
      "notesQ": 8
    }
  ],
  "startTime": 0,
  "duration": 60.60484274999994,
  "tracks": [
    {
      "startTime": 2.419355,
      "duration": 60.584681458333236,
      "length": 81,
      "notes": [
        {
          "name": "D2",
          "midi": 38,
          "time": 2.419355,
          "velocity": 0.7480314960629921,
          "duration": 0.10080645833333346
        },
        {
          "name": "C2",
          "midi": 36,
          "time": 2.903226,
          "velocity": 0.7480314960629921,
          "duration": 0.10080645833333346
        },
        {
          "name": "D2",
          "midi": 38,
          "time": 3.8709680000000004,
          "velocity": 0.7480314960629921,
          "duration": 0.10080645833333346
        },
        {
          "name": "C2",
          "midi": 36,
          "time": 4.5967745,
          "velocity": 0.7480314960629921,
          "duration": 0.10080645833333346
        },
        {
          "name": "D2",
          "midi": 38,
          "time": 5.3225810000000005,
          "velocity": 0.7480314960629921,
          "duration": 0.10080645833333346
        },
        {
          "name": "C2",
          "midi": 36,
          "time": 5.806452,
          "velocity": 0.7480314960629921,
          "duration": 0.10080645833333346
        },
        {
          "name": "D2",
          "midi": 38,
          "time": 6.7741940000000005,
          "velocity": 0.7480314960629921,
          "duration": 0.10080645833333346
        },
        {
          "name": "C2",
          "midi": 36,
          "time": 7.5000005000000005,
          "velocity": 0.7480314960629921,
          "duration": 0.10080645833333346
        },
        {
          "name": "D2",
          "midi": 38,
          "time": 8.225807000000001,
          "velocity": 0.7480314960629921,
          "duration": 0.10080645833333257
        },
        {
          "name": "C2",
          "midi": 36,
          "time": 8.709678,
          "velocity": 0.7480314960629921,
          "duration": 0.10080645833333257
        },
        {
          "name": "D2",
          "midi": 38,
          "time": 9.67742,
          "velocity": 0.7480314960629921,
          "duration": 0.10080645833333257
        },
        {
          "name": "C2",
          "midi": 36,
          "time": 10.403226499999999,
          "velocity": 0.7480314960629921,
          "duration": 0.10080645833333257
        },
        {
          "name": "D2",
          "midi": 38,
          "time": 11.129032999999998,
          "velocity": 0.7480314960629921,
          "duration": 0.10080645833333257
        },
        {
          "name": "C2",
          "midi": 36,
          "time": 11.612903999999997,
          "velocity": 0.7480314960629921,
          "duration": 0.10080645833333257
        },
        {
          "name": "D2",
          "midi": 38,
          "time": 12.580645999999996,
          "velocity": 0.7480314960629921,
          "duration": 0.10080645833333257
        },
        {
          "name": "C2",
          "midi": 36,
          "time": 13.306452499999995,
          "velocity": 0.7480314960629921,
          "duration": 0.10080645833333257
        },
        {
          "name": "D2",
          "midi": 38,
          "time": 14.032258999999994,
          "velocity": 0.7480314960629921,
          "duration": 0.10080645833333257
        },
        {
          "name": "C2",
          "midi": 36,
          "time": 14.516129999999993,
          "velocity": 0.7480314960629921,
          "duration": 0.10080645833333257
        },
        {
          "name": "D2",
          "midi": 38,
          "time": 15.483871999999993,
          "velocity": 0.7480314960629921,
          "duration": 0.10080645833333257
        },
        {
          "name": "C2",
          "midi": 36,
          "time": 16.209678499999992,
          "velocity": 0.7480314960629921,
          "duration": 0.10080645833333435
        },
        {
          "name": "D2",
          "midi": 38,
          "time": 16.935484999999993,
          "velocity": 0.7480314960629921,
          "duration": 0.10080645833333435
        },
        {
          "name": "C2",
          "midi": 36,
          "time": 17.419355999999993,
          "velocity": 0.7480314960629921,
          "duration": 0.10080645833333435
        },
        {
          "name": "D2",
          "midi": 38,
          "time": 18.387097999999995,
          "velocity": 0.7480314960629921,
          "duration": 0.10080645833333435
        },
        {
          "name": "C2",
          "midi": 36,
          "time": 19.112904499999996,
          "velocity": 0.7480314960629921,
          "duration": 0.10080645833333435
        },
        {
          "name": "D2",
          "midi": 38,
          "time": 19.838710999999996,
          "velocity": 0.7480314960629921,
          "duration": 0.10080645833333435
        },
        {
          "name": "C2",
          "midi": 36,
          "time": 20.322581999999997,
          "velocity": 0.7480314960629921,
          "duration": 0.10080645833333435
        },
        {
          "name": "D2",
          "midi": 38,
          "time": 21.290324,
          "velocity": 0.7480314960629921,
          "duration": 0.10080645833333435
        },
        {
          "name": "C2",
          "midi": 36,
          "time": 22.0161305,
          "velocity": 0.7480314960629921,
          "duration": 0.10080645833333435
        },
        {
          "name": "D2",
          "midi": 38,
          "time": 22.741937,
          "velocity": 0.7480314960629921,
          "duration": 0.10080645833333435
        },
        {
          "name": "C2",
          "midi": 36,
          "time": 23.225808,
          "velocity": 0.7480314960629921,
          "duration": 0.10080645833333435
        },
        {
          "name": "D2",
          "midi": 38,
          "time": 24.193550000000002,
          "velocity": 0.7480314960629921,
          "duration": 0.10080645833333435
        },
        {
          "name": "C2",
          "midi": 36,
          "time": 24.919356500000003,
          "velocity": 0.7480314960629921,
          "duration": 0.10080645833333435
        },
        {
          "name": "D2",
          "midi": 38,
          "time": 25.645163000000004,
          "velocity": 0.7480314960629921,
          "duration": 0.10080645833333435
        },
        {
          "name": "C2",
          "midi": 36,
          "time": 26.129034000000004,
          "velocity": 0.7480314960629921,
          "duration": 0.10080645833333435
        },
        {
          "name": "D2",
          "midi": 38,
          "time": 27.096776000000006,
          "velocity": 0.7480314960629921,
          "duration": 0.10080645833333435
        },
        {
          "name": "C2",
          "midi": 36,
          "time": 27.822582500000006,
          "velocity": 0.7480314960629921,
          "duration": 0.10080645833333435
        },
        {
          "name": "D2",
          "midi": 38,
          "time": 28.548389000000007,
          "velocity": 0.7480314960629921,
          "duration": 0.10080645833333435
        },
        {
          "name": "C2",
          "midi": 36,
          "time": 29.032260000000008,
          "velocity": 0.7480314960629921,
          "duration": 0.10080645833333435
        },
        {
          "name": "D2",
          "midi": 38,
          "time": 30.00000200000001,
          "velocity": 0.7480314960629921,
          "duration": 0.10080645833333435
        },
        {
          "name": "C2",
          "midi": 36,
          "time": 30.72580850000001,
          "velocity": 0.7480314960629921,
          "duration": 0.10080645833333435
        },
        {
          "name": "D2",
          "midi": 38,
          "time": 31.45161500000001,
          "velocity": 0.7480314960629921,
          "duration": 0.10080645833333435
        },
        {
          "name": "C2",
          "midi": 36,
          "time": 31.93548600000001,
          "velocity": 0.7480314960629921,
          "duration": 0.1008064583333308
        },
        {
          "name": "D2",
          "midi": 38,
          "time": 32.903228000000006,
          "velocity": 0.7480314960629921,
          "duration": 0.1008064583333308
        },
        {
          "name": "C2",
          "midi": 36,
          "time": 33.6290345,
          "velocity": 0.7480314960629921,
          "duration": 0.1008064583333308
        },
        {
          "name": "D2",
          "midi": 38,
          "time": 34.354841,
          "velocity": 0.7480314960629921,
          "duration": 0.1008064583333308
        },
        {
          "name": "C2",
          "midi": 36,
          "time": 34.838712,
          "velocity": 0.7480314960629921,
          "duration": 0.1008064583333308
        },
        {
          "name": "D2",
          "midi": 38,
          "time": 35.806453999999995,
          "velocity": 0.7480314960629921,
          "duration": 0.1008064583333308
        },
        {
          "name": "C2",
          "midi": 36,
          "time": 36.53226049999999,
          "velocity": 0.7480314960629921,
          "duration": 0.1008064583333308
        },
        {
          "name": "D2",
          "midi": 38,
          "time": 37.25806699999999,
          "velocity": 0.7480314960629921,
          "duration": 0.1008064583333308
        },
        {
          "name": "C2",
          "midi": 36,
          "time": 37.74193799999999,
          "velocity": 0.7480314960629921,
          "duration": 0.1008064583333308
        },
        {
          "name": "D2",
          "midi": 38,
          "time": 38.709679999999985,
          "velocity": 0.7480314960629921,
          "duration": 0.1008064583333308
        },
        {
          "name": "C2",
          "midi": 36,
          "time": 39.43548649999998,
          "velocity": 0.7480314960629921,
          "duration": 0.1008064583333308
        },
        {
          "name": "D2",
          "midi": 38,
          "time": 40.16129299999998,
          "velocity": 0.7480314960629921,
          "duration": 0.1008064583333308
        },
        {
          "name": "C2",
          "midi": 36,
          "time": 40.64516399999998,
          "velocity": 0.7480314960629921,
          "duration": 0.1008064583333308
        },
        {
          "name": "D2",
          "midi": 38,
          "time": 41.612905999999974,
          "velocity": 0.7480314960629921,
          "duration": 0.1008064583333308
        },
        {
          "name": "C2",
          "midi": 36,
          "time": 42.33871249999997,
          "velocity": 0.7480314960629921,
          "duration": 0.1008064583333308
        },
        {
          "name": "D2",
          "midi": 38,
          "time": 43.06451899999997,
          "velocity": 0.7480314960629921,
          "duration": 0.1008064583333308
        },
        {
          "name": "C2",
          "midi": 36,
          "time": 43.54838999999997,
          "velocity": 0.7480314960629921,
          "duration": 0.1008064583333308
        },
        {
          "name": "D2",
          "midi": 38,
          "time": 44.51613199999996,
          "velocity": 0.7480314960629921,
          "duration": 0.1008064583333308
        },
        {
          "name": "C2",
          "midi": 36,
          "time": 45.24193849999996,
          "velocity": 0.7480314960629921,
          "duration": 0.1008064583333308
        },
        {
          "name": "D2",
          "midi": 38,
          "time": 45.96774499999996,
          "velocity": 0.7480314960629921,
          "duration": 0.1008064583333308
        },
        {
          "name": "C2",
          "midi": 36,
          "time": 46.45161599999996,
          "velocity": 0.7480314960629921,
          "duration": 0.1008064583333308
        },
        {
          "name": "D2",
          "midi": 38,
          "time": 47.41935799999995,
          "velocity": 0.7480314960629921,
          "duration": 0.1008064583333308
        },
        {
          "name": "C2",
          "midi": 36,
          "time": 48.14516449999995,
          "velocity": 0.7480314960629921,
          "duration": 0.1008064583333308
        },
        {
          "name": "D2",
          "midi": 38,
          "time": 48.87097099999995,
          "velocity": 0.7480314960629921,
          "duration": 0.1008064583333308
        },
        {
          "name": "C2",
          "midi": 36,
          "time": 49.35484199999995,
          "velocity": 0.7480314960629921,
          "duration": 0.1008064583333308
        },
        {
          "name": "D2",
          "midi": 38,
          "time": 50.32258399999994,
          "velocity": 0.7480314960629921,
          "duration": 0.1008064583333308
        },
        {
          "name": "C2",
          "midi": 36,
          "time": 51.04839049999994,
          "velocity": 0.7480314960629921,
          "duration": 0.1008064583333308
        },
        {
          "name": "D2",
          "midi": 38,
          "time": 51.77419699999994,
          "velocity": 0.7480314960629921,
          "duration": 0.1008064583333308
        },
        {
          "name": "C2",
          "midi": 36,
          "time": 52.25806799999994,
          "velocity": 0.7480314960629921,
          "duration": 0.1008064583333308
        },
        {
          "name": "D2",
          "midi": 38,
          "time": 53.22580999999993,
          "velocity": 0.7480314960629921,
          "duration": 0.1008064583333308
        },
        {
          "name": "C2",
          "midi": 36,
          "time": 53.95161649999993,
          "velocity": 0.7480314960629921,
          "duration": 0.1008064583333308
        },
        {
          "name": "D2",
          "midi": 38,
          "time": 54.677422999999926,
          "velocity": 0.7480314960629921,
          "duration": 0.1008064583333308
        },
        {
          "name": "C2",
          "midi": 36,
          "time": 55.16129399999993,
          "velocity": 0.7480314960629921,
          "duration": 0.1008064583333308
        },
        {
          "name": "D2",
          "midi": 38,
          "time": 56.12903599999992,
          "velocity": 0.7480314960629921,
          "duration": 0.1008064583333308
        },
        {
          "name": "C2",
          "midi": 36,
          "time": 56.85484249999992,
          "velocity": 0.7480314960629921,
          "duration": 0.1008064583333308
        },
        {
          "name": "D2",
          "midi": 38,
          "time": 57.580648999999916,
          "velocity": 0.7480314960629921,
          "duration": 0.1008064583333308
        },
        {
          "name": "C2",
          "midi": 36,
          "time": 58.064519999999916,
          "velocity": 0.7480314960629921,
          "duration": 0.1008064583333308
        },
        {
          "name": "D2",
          "midi": 38,
          "time": 59.03226199999991,
          "velocity": 0.7480314960629921,
          "duration": 0.1008064583333308
        },
        {
          "name": "C2",
          "midi": 36,
          "time": 59.75806849999991,
          "velocity": 0.7480314960629921,
          "duration": 0.1008064583333308
        },
        {
          "name": "D2",
          "midi": 38,
          "time": 60.483874999999905,
          "velocity": 0.7480314960629921,
          "duration": 0.1008064583333308
        }
      ],
      "controlChanges": {},
      "id": 1,
      "name": "merwas",
      "channelNumber": 0,
      "isPercussion": false
    },
    {
      "startTime": 0,
      "duration": 0,
      "length": 0,
      "notes": [],
      "controlChanges": {},
      "id": 2,
      "name": "hawan"
    },
    {
      "startTime": 0,
      "duration": 0,
      "length": 0,
      "notes": [],
      "controlChanges": {},
      "id": 3,
      "name": "tabel"
    },
    {
      "startTime": 0,
      "duration": 0,
      "length": 0,
      "notes": [],
      "controlChanges": {},
      "id": 4,
      "name": "yahala"
    },
    {
      "startTime": 0,
      "duration": 0,
      "length": 0,
      "notes": [],
      "controlChanges": {},
      "id": 5,
      "name": "tar"
    },
    {
      "startTime": 5.806452,
      "duration": 60.60484274999994,
      "length": 99,
      "notes": [
        {
          "name": "D#2",
          "midi": 39,
          "time": 5.806452,
          "velocity": 0.7480314960629921,
          "duration": 0.3024193750000004
        },
        {
          "name": "D#2",
          "midi": 39,
          "time": 8.709678,
          "velocity": 0.7480314960629921,
          "duration": 0.3024193749999995
        },
        {
          "name": "D#2",
          "midi": 39,
          "time": 11.612904,
          "velocity": 0.7480314960629921,
          "duration": 0.3024193749999995
        },
        {
          "name": "D#2",
          "midi": 39,
          "time": 14.51613,
          "velocity": 0.7480314960629921,
          "duration": 0.12096775000000015
        },
        {
          "name": "D#2",
          "midi": 39,
          "time": 15.000001000000001,
          "velocity": 0.7480314960629921,
          "duration": 0.12096775000000015
        },
        {
          "name": "D#2",
          "midi": 39,
          "time": 15.483872000000002,
          "velocity": 0.7480314960629921,
          "duration": 0.12096775000000015
        },
        {
          "name": "D#2",
          "midi": 39,
          "time": 15.967743000000002,
          "velocity": 0.7480314960629921,
          "duration": 0.12096774999999838
        },
        {
          "name": "D#2",
          "midi": 39,
          "time": 16.451614,
          "velocity": 0.7480314960629921,
          "duration": 0.12096774999999838
        },
        {
          "name": "D#2",
          "midi": 39,
          "time": 16.935484999999996,
          "velocity": 0.7480314960629921,
          "duration": 0.12096774999999838
        },
        {
          "name": "D#2",
          "midi": 39,
          "time": 17.419355999999993,
          "velocity": 0.7480314960629921,
          "duration": 0.12096774999999838
        },
        {
          "name": "D#2",
          "midi": 39,
          "time": 17.90322699999999,
          "velocity": 0.7480314960629921,
          "duration": 0.12096774999999838
        },
        {
          "name": "D#2",
          "midi": 39,
          "time": 18.387097999999988,
          "velocity": 0.7480314960629921,
          "duration": 0.12096774999999838
        },
        {
          "name": "D#2",
          "midi": 39,
          "time": 18.870968999999985,
          "velocity": 0.7480314960629921,
          "duration": 0.12096774999999838
        },
        {
          "name": "D#2",
          "midi": 39,
          "time": 19.35483999999998,
          "velocity": 0.7480314960629921,
          "duration": 0.12096774999999838
        },
        {
          "name": "D#2",
          "midi": 39,
          "time": 19.83871099999998,
          "velocity": 0.7480314960629921,
          "duration": 0.12096774999999838
        },
        {
          "name": "D#2",
          "midi": 39,
          "time": 20.322581999999976,
          "velocity": 0.7480314960629921,
          "duration": 0.12096774999999838
        },
        {
          "name": "D#2",
          "midi": 39,
          "time": 20.806452999999973,
          "velocity": 0.7480314960629921,
          "duration": 0.12096774999999838
        },
        {
          "name": "D#2",
          "midi": 39,
          "time": 21.29032399999997,
          "velocity": 0.7480314960629921,
          "duration": 0.12096774999999838
        },
        {
          "name": "D#2",
          "midi": 39,
          "time": 21.774194999999967,
          "velocity": 0.7480314960629921,
          "duration": 0.12096774999999838
        },
        {
          "name": "D#2",
          "midi": 39,
          "time": 22.258065999999964,
          "velocity": 0.7480314960629921,
          "duration": 0.12096774999999838
        },
        {
          "name": "D#2",
          "midi": 39,
          "time": 22.74193699999996,
          "velocity": 0.7480314960629921,
          "duration": 0.12096774999999838
        },
        {
          "name": "D#2",
          "midi": 39,
          "time": 23.225807999999958,
          "velocity": 0.7480314960629921,
          "duration": 0.12096774999999838
        },
        {
          "name": "D#2",
          "midi": 39,
          "time": 23.709678999999955,
          "velocity": 0.7480314960629921,
          "duration": 0.12096774999999838
        },
        {
          "name": "D#2",
          "midi": 39,
          "time": 24.193549999999952,
          "velocity": 0.7480314960629921,
          "duration": 0.12096774999999838
        },
        {
          "name": "D#2",
          "midi": 39,
          "time": 24.67742099999995,
          "velocity": 0.7480314960629921,
          "duration": 0.12096774999999838
        },
        {
          "name": "D#2",
          "midi": 39,
          "time": 25.161291999999946,
          "velocity": 0.7480314960629921,
          "duration": 0.12096774999999838
        },
        {
          "name": "D#2",
          "midi": 39,
          "time": 25.645162999999943,
          "velocity": 0.7480314960629921,
          "duration": 0.12096774999999838
        },
        {
          "name": "D#2",
          "midi": 39,
          "time": 26.12903399999994,
          "velocity": 0.7480314960629921,
          "duration": 0.12096774999999838
        },
        {
          "name": "D#2",
          "midi": 39,
          "time": 26.612904999999937,
          "velocity": 0.7480314960629921,
          "duration": 0.12096774999999838
        },
        {
          "name": "D#2",
          "midi": 39,
          "time": 27.096775999999934,
          "velocity": 0.7480314960629921,
          "duration": 0.12096774999999838
        },
        {
          "name": "D#2",
          "midi": 39,
          "time": 27.58064699999993,
          "velocity": 0.7480314960629921,
          "duration": 0.12096774999999838
        },
        {
          "name": "D#2",
          "midi": 39,
          "time": 28.06451799999993,
          "velocity": 0.7480314960629921,
          "duration": 0.12096774999999838
        },
        {
          "name": "D#2",
          "midi": 39,
          "time": 28.548388999999926,
          "velocity": 0.7480314960629921,
          "duration": 0.12096774999999838
        },
        {
          "name": "D#2",
          "midi": 39,
          "time": 29.032259999999923,
          "velocity": 0.7480314960629921,
          "duration": 0.12096774999999838
        },
        {
          "name": "D#2",
          "midi": 39,
          "time": 29.51613099999992,
          "velocity": 0.7480314960629921,
          "duration": 0.12096774999999838
        },
        {
          "name": "D#2",
          "midi": 39,
          "time": 30.000001999999917,
          "velocity": 0.7480314960629921,
          "duration": 0.12096774999999838
        },
        {
          "name": "D#2",
          "midi": 39,
          "time": 30.483872999999914,
          "velocity": 0.7480314960629921,
          "duration": 0.12096774999999838
        },
        {
          "name": "D#2",
          "midi": 39,
          "time": 30.96774399999991,
          "velocity": 0.7480314960629921,
          "duration": 0.12096774999999838
        },
        {
          "name": "D#2",
          "midi": 39,
          "time": 31.451614999999908,
          "velocity": 0.7480314960629921,
          "duration": 0.12096774999999838
        },
        {
          "name": "D#2",
          "midi": 39,
          "time": 31.935485999999905,
          "velocity": 0.7480314960629921,
          "duration": 0.12096774999999838
        },
        {
          "name": "D#2",
          "midi": 39,
          "time": 32.419356999999906,
          "velocity": 0.7480314960629921,
          "duration": 0.12096774999999838
        },
        {
          "name": "D#2",
          "midi": 39,
          "time": 32.903227999999906,
          "velocity": 0.7480314960629921,
          "duration": 0.12096774999999838
        },
        {
          "name": "D#2",
          "midi": 39,
          "time": 33.38709899999991,
          "velocity": 0.7480314960629921,
          "duration": 0.12096774999999838
        },
        {
          "name": "D#2",
          "midi": 39,
          "time": 33.87096999999991,
          "velocity": 0.7480314960629921,
          "duration": 0.12096774999999838
        },
        {
          "name": "D#2",
          "midi": 39,
          "time": 34.35484099999991,
          "velocity": 0.7480314960629921,
          "duration": 0.12096774999999838
        },
        {
          "name": "D#2",
          "midi": 39,
          "time": 34.83871199999991,
          "velocity": 0.7480314960629921,
          "duration": 0.12096774999999838
        },
        {
          "name": "D#2",
          "midi": 39,
          "time": 35.32258299999991,
          "velocity": 0.7480314960629921,
          "duration": 0.12096774999999838
        },
        {
          "name": "D#2",
          "midi": 39,
          "time": 35.80645399999991,
          "velocity": 0.7480314960629921,
          "duration": 0.12096774999999838
        },
        {
          "name": "D#2",
          "midi": 39,
          "time": 36.29032499999991,
          "velocity": 0.7480314960629921,
          "duration": 0.12096774999999838
        },
        {
          "name": "D#2",
          "midi": 39,
          "time": 36.77419599999991,
          "velocity": 0.7480314960629921,
          "duration": 0.12096774999999838
        },
        {
          "name": "D#2",
          "midi": 39,
          "time": 37.25806699999991,
          "velocity": 0.7480314960629921,
          "duration": 0.12096774999999838
        },
        {
          "name": "D#2",
          "midi": 39,
          "time": 37.74193799999991,
          "velocity": 0.7480314960629921,
          "duration": 0.12096774999999838
        },
        {
          "name": "D#2",
          "midi": 39,
          "time": 38.22580899999991,
          "velocity": 0.7480314960629921,
          "duration": 0.12096774999999838
        },
        {
          "name": "D#2",
          "midi": 39,
          "time": 38.70967999999991,
          "velocity": 0.7480314960629921,
          "duration": 0.12096774999999838
        },
        {
          "name": "D#2",
          "midi": 39,
          "time": 39.193550999999914,
          "velocity": 0.7480314960629921,
          "duration": 0.12096774999999838
        },
        {
          "name": "D#2",
          "midi": 39,
          "time": 39.677421999999915,
          "velocity": 0.7480314960629921,
          "duration": 0.12096774999999838
        },
        {
          "name": "D#2",
          "midi": 39,
          "time": 40.161292999999915,
          "velocity": 0.7480314960629921,
          "duration": 0.12096774999999838
        },
        {
          "name": "D#2",
          "midi": 39,
          "time": 40.645163999999916,
          "velocity": 0.7480314960629921,
          "duration": 0.12096774999999838
        },
        {
          "name": "D#2",
          "midi": 39,
          "time": 41.12903499999992,
          "velocity": 0.7480314960629921,
          "duration": 0.12096774999999838
        },
        {
          "name": "D#2",
          "midi": 39,
          "time": 41.61290599999992,
          "velocity": 0.7480314960629921,
          "duration": 0.12096774999999838
        },
        {
          "name": "D#2",
          "midi": 39,
          "time": 42.09677699999992,
          "velocity": 0.7480314960629921,
          "duration": 0.12096774999999838
        },
        {
          "name": "D#2",
          "midi": 39,
          "time": 42.58064799999992,
          "velocity": 0.7480314960629921,
          "duration": 0.12096774999999838
        },
        {
          "name": "D#2",
          "midi": 39,
          "time": 43.06451899999992,
          "velocity": 0.7480314960629921,
          "duration": 0.12096774999999838
        },
        {
          "name": "D#2",
          "midi": 39,
          "time": 43.54838999999992,
          "velocity": 0.7480314960629921,
          "duration": 0.12096774999999838
        },
        {
          "name": "D#2",
          "midi": 39,
          "time": 44.03226099999992,
          "velocity": 0.7480314960629921,
          "duration": 0.12096774999999838
        },
        {
          "name": "D#2",
          "midi": 39,
          "time": 44.51613199999992,
          "velocity": 0.7480314960629921,
          "duration": 0.12096774999999838
        },
        {
          "name": "D#2",
          "midi": 39,
          "time": 45.00000299999992,
          "velocity": 0.7480314960629921,
          "duration": 0.12096774999999838
        },
        {
          "name": "D#2",
          "midi": 39,
          "time": 45.48387399999992,
          "velocity": 0.7480314960629921,
          "duration": 0.12096774999999838
        },
        {
          "name": "D#2",
          "midi": 39,
          "time": 45.96774499999992,
          "velocity": 0.7480314960629921,
          "duration": 0.12096774999999838
        },
        {
          "name": "D#2",
          "midi": 39,
          "time": 46.45161599999992,
          "velocity": 0.7480314960629921,
          "duration": 0.12096774999999838
        },
        {
          "name": "D#2",
          "midi": 39,
          "time": 46.935486999999924,
          "velocity": 0.7480314960629921,
          "duration": 0.12096774999999838
        },
        {
          "name": "D#2",
          "midi": 39,
          "time": 47.419357999999924,
          "velocity": 0.7480314960629921,
          "duration": 0.12096774999999838
        },
        {
          "name": "D#2",
          "midi": 39,
          "time": 47.903228999999925,
          "velocity": 0.7480314960629921,
          "duration": 0.12096774999999838
        },
        {
          "name": "D#2",
          "midi": 39,
          "time": 48.387099999999926,
          "velocity": 0.7480314960629921,
          "duration": 0.12096774999999838
        },
        {
          "name": "D#2",
          "midi": 39,
          "time": 48.870970999999926,
          "velocity": 0.7480314960629921,
          "duration": 0.12096774999999838
        },
        {
          "name": "D#2",
          "midi": 39,
          "time": 49.35484199999993,
          "velocity": 0.7480314960629921,
          "duration": 0.12096774999999838
        },
        {
          "name": "D#2",
          "midi": 39,
          "time": 49.83871299999993,
          "velocity": 0.7480314960629921,
          "duration": 0.12096774999999838
        },
        {
          "name": "D#2",
          "midi": 39,
          "time": 50.32258399999993,
          "velocity": 0.7480314960629921,
          "duration": 0.12096774999999838
        },
        {
          "name": "D#2",
          "midi": 39,
          "time": 50.80645499999993,
          "velocity": 0.7480314960629921,
          "duration": 0.12096774999999838
        },
        {
          "name": "D#2",
          "midi": 39,
          "time": 51.29032599999993,
          "velocity": 0.7480314960629921,
          "duration": 0.12096774999999838
        },
        {
          "name": "D#2",
          "midi": 39,
          "time": 51.77419699999993,
          "velocity": 0.7480314960629921,
          "duration": 0.12096774999999838
        },
        {
          "name": "D#2",
          "midi": 39,
          "time": 52.25806799999993,
          "velocity": 0.7480314960629921,
          "duration": 0.12096774999999838
        },
        {
          "name": "D#2",
          "midi": 39,
          "time": 52.74193899999993,
          "velocity": 0.7480314960629921,
          "duration": 0.12096774999999838
        },
        {
          "name": "D#2",
          "midi": 39,
          "time": 53.22580999999993,
          "velocity": 0.7480314960629921,
          "duration": 0.12096774999999838
        },
        {
          "name": "D#2",
          "midi": 39,
          "time": 53.70968099999993,
          "velocity": 0.7480314960629921,
          "duration": 0.12096774999999838
        },
        {
          "name": "D#2",
          "midi": 39,
          "time": 54.19355199999993,
          "velocity": 0.7480314960629921,
          "duration": 0.12096774999999838
        },
        {
          "name": "D#2",
          "midi": 39,
          "time": 54.67742299999993,
          "velocity": 0.7480314960629921,
          "duration": 0.12096774999999838
        },
        {
          "name": "D#2",
          "midi": 39,
          "time": 55.161293999999934,
          "velocity": 0.7480314960629921,
          "duration": 0.12096774999999838
        },
        {
          "name": "D#2",
          "midi": 39,
          "time": 55.645164999999935,
          "velocity": 0.7480314960629921,
          "duration": 0.12096774999999838
        },
        {
          "name": "D#2",
          "midi": 39,
          "time": 56.129035999999935,
          "velocity": 0.7480314960629921,
          "duration": 0.12096774999999838
        },
        {
          "name": "D#2",
          "midi": 39,
          "time": 56.612906999999936,
          "velocity": 0.7480314960629921,
          "duration": 0.12096774999999838
        },
        {
          "name": "D#2",
          "midi": 39,
          "time": 57.09677799999994,
          "velocity": 0.7480314960629921,
          "duration": 0.12096774999999838
        },
        {
          "name": "D#2",
          "midi": 39,
          "time": 57.58064899999994,
          "velocity": 0.7480314960629921,
          "duration": 0.12096774999999838
        },
        {
          "name": "D#2",
          "midi": 39,
          "time": 58.06451999999994,
          "velocity": 0.7480314960629921,
          "duration": 0.12096774999999838
        },
        {
          "name": "D#2",
          "midi": 39,
          "time": 58.54839099999994,
          "velocity": 0.7480314960629921,
          "duration": 0.12096774999999838
        },
        {
          "name": "D#2",
          "midi": 39,
          "time": 59.03226199999994,
          "velocity": 0.7480314960629921,
          "duration": 0.12096774999999838
        },
        {
          "name": "D#2",
          "midi": 39,
          "time": 59.51613299999994,
          "velocity": 0.7480314960629921,
          "duration": 0.12096774999999838
        },
        {
          "name": "D#2",
          "midi": 39,
          "time": 60.00000399999994,
          "velocity": 0.7480314960629921,
          "duration": 0.12096774999999838
        },
        {
          "name": "D#2",
          "midi": 39,
          "time": 60.48387499999994,
          "velocity": 0.7480314960629921,
          "duration": 0.12096774999999838
        }
      ],
      "controlChanges": {},
      "id": 6,
      "name": "hands",
      "channelNumber": 0,
      "isPercussion": false
    },
    {
      "startTime": 17.6612915,
      "duration": 57.94355224999995,
      "length": 84,
      "notes": [
        {
          "name": "D#2",
          "midi": 39,
          "time": 17.6612915,
          "velocity": 0.7480314960629921,
          "duration": 0.12096774999999838
        },
        {
          "name": "D#2",
          "midi": 39,
          "time": 18.145162499999998,
          "velocity": 0.7480314960629921,
          "duration": 0.12096774999999838
        },
        {
          "name": "D#2",
          "midi": 39,
          "time": 18.629033499999995,
          "velocity": 0.7480314960629921,
          "duration": 0.12096774999999838
        },
        {
          "name": "D#2",
          "midi": 39,
          "time": 19.112904499999992,
          "velocity": 0.7480314960629921,
          "duration": 0.12096774999999838
        },
        {
          "name": "D#2",
          "midi": 39,
          "time": 19.59677549999999,
          "velocity": 0.7480314960629921,
          "duration": 0.12096774999999838
        },
        {
          "name": "D#2",
          "midi": 39,
          "time": 20.080646499999986,
          "velocity": 0.7480314960629921,
          "duration": 0.12096774999999838
        },
        {
          "name": "D#2",
          "midi": 39,
          "time": 20.564517499999983,
          "velocity": 0.7480314960629921,
          "duration": 0.12096774999999838
        },
        {
          "name": "D#2",
          "midi": 39,
          "time": 21.04838849999998,
          "velocity": 0.7480314960629921,
          "duration": 0.12096774999999838
        },
        {
          "name": "D#2",
          "midi": 39,
          "time": 21.532259499999977,
          "velocity": 0.7480314960629921,
          "duration": 0.12096774999999838
        },
        {
          "name": "D#2",
          "midi": 39,
          "time": 22.016130499999974,
          "velocity": 0.7480314960629921,
          "duration": 0.12096774999999838
        },
        {
          "name": "D#2",
          "midi": 39,
          "time": 22.50000149999997,
          "velocity": 0.7480314960629921,
          "duration": 0.12096774999999838
        },
        {
          "name": "D#2",
          "midi": 39,
          "time": 22.98387249999997,
          "velocity": 0.7480314960629921,
          "duration": 0.12096774999999838
        },
        {
          "name": "D#2",
          "midi": 39,
          "time": 23.467743499999965,
          "velocity": 0.7480314960629921,
          "duration": 0.12096774999999838
        },
        {
          "name": "D#2",
          "midi": 39,
          "time": 23.951614499999963,
          "velocity": 0.7480314960629921,
          "duration": 0.12096774999999838
        },
        {
          "name": "D#2",
          "midi": 39,
          "time": 24.43548549999996,
          "velocity": 0.7480314960629921,
          "duration": 0.12096774999999838
        },
        {
          "name": "D#2",
          "midi": 39,
          "time": 24.919356499999957,
          "velocity": 0.7480314960629921,
          "duration": 0.12096774999999838
        },
        {
          "name": "D#2",
          "midi": 39,
          "time": 25.403227499999954,
          "velocity": 0.7480314960629921,
          "duration": 0.12096774999999838
        },
        {
          "name": "D#2",
          "midi": 39,
          "time": 25.88709849999995,
          "velocity": 0.7480314960629921,
          "duration": 0.12096774999999838
        },
        {
          "name": "D#2",
          "midi": 39,
          "time": 26.370969499999948,
          "velocity": 0.7480314960629921,
          "duration": 0.12096774999999838
        },
        {
          "name": "D#2",
          "midi": 39,
          "time": 26.854840499999945,
          "velocity": 0.7480314960629921,
          "duration": 0.12096774999999838
        },
        {
          "name": "D#2",
          "midi": 39,
          "time": 27.338711499999942,
          "velocity": 0.7480314960629921,
          "duration": 0.12096774999999838
        },
        {
          "name": "D#2",
          "midi": 39,
          "time": 27.82258249999994,
          "velocity": 0.7480314960629921,
          "duration": 0.12096774999999838
        },
        {
          "name": "D#2",
          "midi": 39,
          "time": 28.306453499999936,
          "velocity": 0.7480314960629921,
          "duration": 0.12096774999999838
        },
        {
          "name": "D#2",
          "midi": 39,
          "time": 28.790324499999933,
          "velocity": 0.7480314960629921,
          "duration": 0.12096774999999838
        },
        {
          "name": "D#2",
          "midi": 39,
          "time": 29.27419549999993,
          "velocity": 0.7480314960629921,
          "duration": 0.12096774999999838
        },
        {
          "name": "D#2",
          "midi": 39,
          "time": 29.758066499999927,
          "velocity": 0.7480314960629921,
          "duration": 0.12096774999999838
        },
        {
          "name": "D#2",
          "midi": 39,
          "time": 30.241937499999924,
          "velocity": 0.7480314960629921,
          "duration": 0.12096774999999838
        },
        {
          "name": "D#2",
          "midi": 39,
          "time": 30.72580849999992,
          "velocity": 0.7480314960629921,
          "duration": 0.12096774999999838
        },
        {
          "name": "D#2",
          "midi": 39,
          "time": 31.20967949999992,
          "velocity": 0.7480314960629921,
          "duration": 0.12096774999999838
        },
        {
          "name": "D#2",
          "midi": 39,
          "time": 31.693550499999915,
          "velocity": 0.7480314960629921,
          "duration": 0.12096774999999838
        },
        {
          "name": "D#2",
          "midi": 39,
          "time": 32.177421499999916,
          "velocity": 0.7480314960629921,
          "duration": 0.12096774999999838
        },
        {
          "name": "D#2",
          "midi": 39,
          "time": 32.66129249999992,
          "velocity": 0.7480314960629921,
          "duration": 0.12096774999999838
        },
        {
          "name": "D#2",
          "midi": 39,
          "time": 33.14516349999992,
          "velocity": 0.7480314960629921,
          "duration": 0.12096774999999838
        },
        {
          "name": "D#2",
          "midi": 39,
          "time": 33.62903449999992,
          "velocity": 0.7480314960629921,
          "duration": 0.12096774999999838
        },
        {
          "name": "D#2",
          "midi": 39,
          "time": 34.11290549999992,
          "velocity": 0.7480314960629921,
          "duration": 0.12096774999999838
        },
        {
          "name": "D#2",
          "midi": 39,
          "time": 34.59677649999992,
          "velocity": 0.7480314960629921,
          "duration": 0.12096774999999838
        },
        {
          "name": "D#2",
          "midi": 39,
          "time": 35.08064749999992,
          "velocity": 0.7480314960629921,
          "duration": 0.12096774999999838
        },
        {
          "name": "D#2",
          "midi": 39,
          "time": 35.56451849999992,
          "velocity": 0.7480314960629921,
          "duration": 0.12096774999999838
        },
        {
          "name": "D#2",
          "midi": 39,
          "time": 36.04838949999992,
          "velocity": 0.7480314960629921,
          "duration": 0.12096774999999838
        },
        {
          "name": "D#2",
          "midi": 39,
          "time": 36.53226049999992,
          "velocity": 0.7480314960629921,
          "duration": 0.12096774999999838
        },
        {
          "name": "D#2",
          "midi": 39,
          "time": 37.01613149999992,
          "velocity": 0.7480314960629921,
          "duration": 0.12096774999999838
        },
        {
          "name": "D#2",
          "midi": 39,
          "time": 37.50000249999992,
          "velocity": 0.7480314960629921,
          "duration": 0.12096774999999838
        },
        {
          "name": "D#2",
          "midi": 39,
          "time": 37.98387349999992,
          "velocity": 0.7480314960629921,
          "duration": 0.12096774999999838
        },
        {
          "name": "D#2",
          "midi": 39,
          "time": 38.467744499999924,
          "velocity": 0.7480314960629921,
          "duration": 0.12096774999999838
        },
        {
          "name": "D#2",
          "midi": 39,
          "time": 38.951615499999924,
          "velocity": 0.7480314960629921,
          "duration": 0.12096774999999838
        },
        {
          "name": "D#2",
          "midi": 39,
          "time": 39.435486499999925,
          "velocity": 0.7480314960629921,
          "duration": 0.12096774999999838
        },
        {
          "name": "D#2",
          "midi": 39,
          "time": 39.919357499999926,
          "velocity": 0.7480314960629921,
          "duration": 0.12096774999999838
        },
        {
          "name": "D#2",
          "midi": 39,
          "time": 40.403228499999926,
          "velocity": 0.7480314960629921,
          "duration": 0.12096774999999838
        },
        {
          "name": "D#2",
          "midi": 39,
          "time": 40.88709949999993,
          "velocity": 0.7480314960629921,
          "duration": 0.12096774999999838
        },
        {
          "name": "D#2",
          "midi": 39,
          "time": 41.37097049999993,
          "velocity": 0.7480314960629921,
          "duration": 0.12096774999999838
        },
        {
          "name": "D#2",
          "midi": 39,
          "time": 41.85484149999993,
          "velocity": 0.7480314960629921,
          "duration": 0.12096774999999838
        },
        {
          "name": "D#2",
          "midi": 39,
          "time": 42.33871249999993,
          "velocity": 0.7480314960629921,
          "duration": 0.12096774999999838
        },
        {
          "name": "D#2",
          "midi": 39,
          "time": 42.82258349999993,
          "velocity": 0.7480314960629921,
          "duration": 0.12096774999999838
        },
        {
          "name": "D#2",
          "midi": 39,
          "time": 43.30645449999993,
          "velocity": 0.7480314960629921,
          "duration": 0.12096774999999838
        },
        {
          "name": "D#2",
          "midi": 39,
          "time": 43.79032549999993,
          "velocity": 0.7480314960629921,
          "duration": 0.12096774999999838
        },
        {
          "name": "D#2",
          "midi": 39,
          "time": 44.27419649999993,
          "velocity": 0.7480314960629921,
          "duration": 0.12096774999999838
        },
        {
          "name": "D#2",
          "midi": 39,
          "time": 44.75806749999993,
          "velocity": 0.7480314960629921,
          "duration": 0.12096774999999838
        },
        {
          "name": "D#2",
          "midi": 39,
          "time": 45.24193849999993,
          "velocity": 0.7480314960629921,
          "duration": 0.12096774999999838
        },
        {
          "name": "D#2",
          "midi": 39,
          "time": 45.72580949999993,
          "velocity": 0.7480314960629921,
          "duration": 0.12096774999999838
        },
        {
          "name": "D#2",
          "midi": 39,
          "time": 46.20968049999993,
          "velocity": 0.7480314960629921,
          "duration": 0.12096774999999838
        },
        {
          "name": "D#2",
          "midi": 39,
          "time": 46.693551499999934,
          "velocity": 0.7480314960629921,
          "duration": 0.12096774999999838
        },
        {
          "name": "D#2",
          "midi": 39,
          "time": 47.177422499999935,
          "velocity": 0.7480314960629921,
          "duration": 0.12096774999999838
        },
        {
          "name": "D#2",
          "midi": 39,
          "time": 47.661293499999935,
          "velocity": 0.7480314960629921,
          "duration": 0.12096774999999838
        },
        {
          "name": "D#2",
          "midi": 39,
          "time": 48.145164499999936,
          "velocity": 0.7480314960629921,
          "duration": 0.12096774999999838
        },
        {
          "name": "D#2",
          "midi": 39,
          "time": 48.62903549999994,
          "velocity": 0.7480314960629921,
          "duration": 0.12096774999999838
        },
        {
          "name": "D#2",
          "midi": 39,
          "time": 49.11290649999994,
          "velocity": 0.7480314960629921,
          "duration": 0.12096774999999838
        },
        {
          "name": "D#2",
          "midi": 39,
          "time": 49.59677749999994,
          "velocity": 0.7480314960629921,
          "duration": 0.12096774999999838
        },
        {
          "name": "D#2",
          "midi": 39,
          "time": 50.08064849999994,
          "velocity": 0.7480314960629921,
          "duration": 0.12096774999999838
        },
        {
          "name": "D#2",
          "midi": 39,
          "time": 50.56451949999994,
          "velocity": 0.7480314960629921,
          "duration": 0.12096774999999838
        },
        {
          "name": "D#2",
          "midi": 39,
          "time": 51.04839049999994,
          "velocity": 0.7480314960629921,
          "duration": 0.12096774999999838
        },
        {
          "name": "D#2",
          "midi": 39,
          "time": 51.53226149999994,
          "velocity": 0.7480314960629921,
          "duration": 0.12096774999999838
        },
        {
          "name": "D#2",
          "midi": 39,
          "time": 52.01613249999994,
          "velocity": 0.7480314960629921,
          "duration": 0.12096774999999838
        },
        {
          "name": "D#2",
          "midi": 39,
          "time": 52.50000349999994,
          "velocity": 0.7480314960629921,
          "duration": 0.12096774999999838
        },
        {
          "name": "D#2",
          "midi": 39,
          "time": 52.98387449999994,
          "velocity": 0.7480314960629921,
          "duration": 0.12096774999999838
        },
        {
          "name": "D#2",
          "midi": 39,
          "time": 53.46774549999994,
          "velocity": 0.7480314960629921,
          "duration": 0.12096774999999838
        },
        {
          "name": "D#2",
          "midi": 39,
          "time": 53.95161649999994,
          "velocity": 0.7480314960629921,
          "duration": 0.12096774999999838
        },
        {
          "name": "D#2",
          "midi": 39,
          "time": 54.435487499999944,
          "velocity": 0.7480314960629921,
          "duration": 0.12096774999999838
        },
        {
          "name": "D#2",
          "midi": 39,
          "time": 54.919358499999944,
          "velocity": 0.7480314960629921,
          "duration": 0.12096774999999838
        },
        {
          "name": "D#2",
          "midi": 39,
          "time": 55.403229499999945,
          "velocity": 0.7480314960629921,
          "duration": 0.12096774999999838
        },
        {
          "name": "D#2",
          "midi": 39,
          "time": 55.887100499999946,
          "velocity": 0.7480314960629921,
          "duration": 0.12096774999999838
        },
        {
          "name": "D#2",
          "midi": 39,
          "time": 56.370971499999946,
          "velocity": 0.7480314960629921,
          "duration": 0.12096774999999838
        },
        {
          "name": "D#2",
          "midi": 39,
          "time": 56.85484249999995,
          "velocity": 0.7480314960629921,
          "duration": 0.12096774999999838
        },
        {
          "name": "D#2",
          "midi": 39,
          "time": 57.33871349999995,
          "velocity": 0.7480314960629921,
          "duration": 0.12096774999999838
        },
        {
          "name": "D#2",
          "midi": 39,
          "time": 57.82258449999995,
          "velocity": 0.7480314960629921,
          "duration": 0.12096774999999838
        }
      ],
      "controlChanges": {},
      "id": 7,
      "name": "hands",
      "channelNumber": 0,
      "isPercussion": false
    }
  ]
}